<svg xmlns="http://www.w3.org/2000/svg" xmlns:xlink="http://www.w3.org/1999/xlink" viewBox="0 0 365.28 322.05"><defs><style>.cls-1,.cls-2,.cls-3,.cls-4{fill-rule:evenodd;}.cls-1{fill:url(#linear-gradient);}.cls-2{fill:url(#linear-gradient-2);}.cls-3{fill:url(#linear-gradient-3);}.cls-4{fill:url(#linear-gradient-4);}</style><linearGradient id="linear-gradient" x1="231.8" y1="261.95" x2="-125.7" y2="371.17" gradientUnits="userSpaceOnUse"><stop offset="0" stop-color="#eb2027"/><stop offset="1" stop-color="#f9ec23"/></linearGradient><linearGradient id="linear-gradient-2" x1="38.99" y1="194.4" x2="520.64" y2="194.4" gradientUnits="userSpaceOnUse"><stop offset="0" stop-color="#eb2027"/><stop offset="0.1" stop-color="#ec2927"/><stop offset="0.26" stop-color="#ed4026"/><stop offset="0.46" stop-color="#f06626"/><stop offset="0.69" stop-color="#f39b25"/><stop offset="0.95" stop-color="#f8dd23"/><stop offset="1" stop-color="#f9ec23"/></linearGradient><linearGradient id="linear-gradient-3" x1="119.38" y1="248.36" x2="-96.99" y2="-74.77" xlink:href="#linear-gradient"/><linearGradient id="linear-gradient-4" x1="47.04" y1="99.32" x2="374.08" y2="99.32" xlink:href="#linear-gradient"/></defs><title>Ресурс 3</title><g id="Слой_2" data-name="Слой 2"><g id="Layer_1" data-name="Layer 1"><path class="cls-1" d="M225.22,310.89a172.92,172.92,0,0,1-82.46,9.86c-37.3-4.57-72.44-21.1-97-48.32,29.13,21,49.94,26,93.3,26-22.5-6.41-49.36-18.74-63.73-36,33.47,18.09,63.3,27.68,90.87,24.85a88.42,88.42,0,0,0,25.66-6.6c13.24-5.6,30.58-16.75,32.71-32.14a23.85,23.85,0,0,1,3.68.29C265,253.79,252,299.49,225.22,310.89Z"/><path class="cls-2" d="M330.23,131c14.31-6.32,19.27-10.26,35-8.37-24.58,18.29-31.86,27.8-35.9,52.43-11.93,72.63-54.18,116.72-104.16,135.84,29-12.38,41.91-65.22-7.56-62.41-22.72,1.29-45-4.44-53.71-11.55,16.41,3.57,39.34,1,52-4.08,8.6-3.44,6.24-10.77-4.37-9.27-29.1,4.1-65.68-1.62-96.64-18.51,17.09,2,39,3.67,56.08,2.16,14.3-1.26,19.78-6.22,18.61-9.66-1-2.91-6.12-4.46-20.8-4.72-38.1-.65-70.14-10.7-90.73-35.58,18.65,9.4,61.46,11.7,78.08,7.3,8.53-2.26,10.16-7.17-1.87-12-10.14-4-38.46-7.86-53.34-12.75-28.26-9.29-46.57-22.59-62-61.94,45,34.24,84.42,35.36,132.54,39.4,16.78,1.42,27.93-.12,44.58.31,25.12.64,29.13,38.27,52.72,63.22,24.07,25.47,35.33,13.27,36.13-1.48,1.34-24.92-25.64-7-43.63-25.28,12.78,3.48,17.14.15,25.89-5.38-6.44,0-12.18-2.26-17.63-5.58C290.46,146.79,307.36,123.71,330.23,131Z"/><path class="cls-3" d="M5.09,199.65A163.47,163.47,0,0,1,0,159.07C0,106.46,24.69,57.27,65.73,31,40.12,57.33,27.31,78.07,22.9,114.71a149.23,149.23,0,0,0-1.06,17.79A147.39,147.39,0,0,0,188.23,278.64a85.37,85.37,0,0,1-16.69,4.63C139,288.8,105,274.74,76.88,259.56l-14.78-8,10.73,12.92c10.85,13.07,28.2,23.18,45.42,30.22-13-.77-26-2.62-38.13-7C40.63,273.48,15.46,240.19,5.09,199.65Z"/><path class="cls-4" d="M297.61,85.53C283.92,50.84,254.45,21.73,214.08,8,145.59-15.3,70.2,14,39.46,73.73l1.27,1c4.82,3.75,9.65,7.17,14.55,10.29a139.76,139.76,0,0,1,242.33.53ZM35.74,81.46c.91-2.33.26-2.18,1.35.56a153.44,153.44,0,0,0,9.67,20.38,139.12,139.12,0,0,0-10.19,51q-.06,5.51.3,10.9a94.17,94.17,0,0,0,5.48,30.52c.38,1.29.78,2.56,1.2,3.83C25.26,169.38,23.32,112.84,35.74,81.46Z"/></g></g></svg>